<svg xmlns="http://www.w3.org/2000/svg" width="354" height="60" fill="none"><path fill="#0071e3" d="M104.159 29.546c0 3.727-.682 6.931-2.045 9.613-1.364 2.67-3.233 4.727-5.608 6.17-2.364 1.432-5.052 2.148-8.063 2.148-3.022 0-5.721-.716-8.096-2.147-2.364-1.444-4.228-3.506-5.591-6.188-1.364-2.682-2.046-5.88-2.046-9.597 0-3.727.682-6.926 2.046-9.596 1.363-2.682 3.227-4.739 5.59-6.17 2.376-1.444 5.075-2.165 8.097-2.165 3.011 0 5.699.721 8.063 2.164 2.375 1.432 4.244 3.489 5.608 6.17 1.363 2.671 2.045 5.87 2.045 9.598Zm-5.216 0c0-2.841-.46-5.233-1.38-7.177-.91-1.954-2.16-3.431-3.75-4.431-1.58-1.012-3.37-1.517-5.37-1.517-2.011 0-3.807.505-5.386 1.517-1.58 1-2.83 2.477-3.75 4.431-.91 1.944-1.364 4.335-1.364 7.177 0 2.84.455 5.238 1.364 7.193.92 1.943 2.17 3.42 3.75 4.431 1.58 1 3.375 1.5 5.386 1.5 2 0 3.79-.5 5.37-1.5 1.59-1.01 2.84-2.488 3.75-4.431.92-1.955 1.38-4.353 1.38-7.193Zm16.47 1.909V47h-5.096V20.818h4.892v4.261h.324a7.482 7.482 0 0 1 2.829-3.34c1.296-.841 2.926-1.262 4.892-1.262 1.784 0 3.347.375 4.688 1.125 1.341.739 2.38 1.841 3.119 3.307.739 1.466 1.108 3.279 1.108 5.438V47h-5.097V30.96c0-1.898-.494-3.38-1.483-4.449-.988-1.08-2.346-1.619-4.073-1.619-1.182 0-2.233.256-3.154.767-.909.512-1.63 1.262-2.165 2.25-.522.977-.784 2.16-.784 3.546Zm34.875 16.073c-2.579 0-4.801-.55-6.664-1.653-1.853-1.114-3.285-2.676-4.296-4.688-1-2.022-1.5-4.392-1.5-7.107 0-2.682.5-5.046 1.5-7.091 1.011-2.046 2.421-3.642 4.227-4.79 1.819-1.148 3.944-1.722 6.375-1.722 1.478 0 2.909.245 4.296.733a10.405 10.405 0 0 1 3.733 2.301c1.102 1.046 1.971 2.404 2.608 4.074.636 1.66.954 3.676.954 6.051v1.807h-20.812v-3.818h15.818c0-1.34-.273-2.528-.818-3.563a6.194 6.194 0 0 0-2.301-2.471c-.978-.602-2.125-.904-3.444-.904-1.431 0-2.681.353-3.75 1.057a7.094 7.094 0 0 0-2.454 2.728c-.568 1.113-.852 2.323-.852 3.63v2.983c0 1.75.306 3.239.92 4.466.625 1.227 1.494 2.165 2.608 2.813 1.114.636 2.415.954 3.903.954.966 0 1.847-.136 2.643-.409a5.712 5.712 0 0 0 2.062-1.261c.58-.557 1.023-1.245 1.33-2.063l4.823.87a8.73 8.73 0 0 1-2.079 3.733c-.989 1.056-2.233 1.88-3.733 2.471-1.489.58-3.188.87-5.097.87Zm18.098-35.437h3.682L184.733 42.5h.307l12.665-30.41h3.681V47h-3V18.824h-.272L186.335 47h-2.897l-11.779-28.176h-.273V47h-3V12.09Zm52.236 35.454c-2.443 0-4.557-.568-6.341-1.704-1.784-1.148-3.165-2.733-4.142-4.756-.966-2.034-1.449-4.375-1.449-7.023 0-2.636.483-4.977 1.449-7.022.977-2.057 2.324-3.665 4.04-4.824 1.727-1.17 3.722-1.756 5.983-1.756 1.42 0 2.79.262 4.108.784 1.318.512 2.5 1.302 3.545 2.37 1.057 1.056 1.892 2.392 2.506 4.005.614 1.603.92 3.5.92 5.694v1.5h-20.454v-2.677h17.352c0-1.682-.341-3.193-1.023-4.534-.67-1.352-1.607-2.42-2.812-3.204-1.193-.784-2.574-1.176-4.142-1.176-1.659 0-3.119.443-4.381 1.33-1.261.886-2.25 2.056-2.966 3.51-.704 1.455-1.062 3.046-1.074 4.773v1.602c0 2.08.358 3.898 1.074 5.455.728 1.545 1.756 2.744 3.086 3.597 1.329.852 2.903 1.278 4.721 1.278 1.239 0 2.324-.193 3.256-.58.943-.386 1.733-.903 2.369-1.55a6.877 6.877 0 0 0 1.466-2.165l2.881.937c-.398 1.102-1.051 2.12-1.96 3.051-.898.932-2.023 1.682-3.375 2.25-1.341.557-2.887.835-4.637.835Zm26.732 0c-2.148 0-4.029-.568-5.642-1.704-1.614-1.136-2.875-2.722-3.784-4.756-.898-2.034-1.347-4.403-1.347-7.108 0-2.693.449-5.05 1.347-7.074.909-2.034 2.176-3.613 3.801-4.738 1.625-1.137 3.517-1.705 5.676-1.705 1.591 0 2.915.284 3.971.852 1.057.557 1.904 1.25 2.54 2.08.637.83 1.131 1.636 1.483 2.42h.273V12.091h3.051V47h-2.966v-4.858h-.358c-.352.795-.852 1.614-1.5 2.455-.648.83-1.506 1.528-2.574 2.096-1.057.568-2.38.852-3.971.852Zm.358-2.778c1.693 0 3.136-.46 4.329-1.38 1.193-.932 2.102-2.21 2.727-3.836.637-1.636.955-3.511.955-5.625 0-2.09-.312-3.937-.937-5.54-.625-1.613-1.535-2.875-2.728-3.784-1.193-.92-2.642-1.38-4.346-1.38-1.75 0-3.228.477-4.432 1.431-1.193.944-2.102 2.222-2.727 3.836-.614 1.613-.921 3.426-.921 5.437 0 2.034.313 3.87.938 5.506.625 1.636 1.534 2.937 2.727 3.903 1.204.955 2.676 1.432 4.415 1.432ZM267.399 47V20.818h3.051V47h-3.051Zm1.551-30.682c-.625 0-1.159-.21-1.602-.63a2.09 2.09 0 0 1-.665-1.552c0-.602.222-1.113.665-1.534a2.212 2.212 0 0 1 1.602-.648c.625 0 1.159.216 1.603.648.443.42.664.932.664 1.534a2.09 2.09 0 0 1-.664 1.552c-.444.42-.978.63-1.603.63Zm27.115 10.244-2.778.785a7.314 7.314 0 0 0-1.159-2.131c-.5-.637-1.154-1.142-1.96-1.517-.796-.375-1.784-.563-2.966-.563-1.773 0-3.228.42-4.364 1.262-1.136.84-1.704 1.926-1.704 3.255 0 1.125.386 2.04 1.159 2.745.784.693 1.988 1.244 3.613 1.653l3.955.972c2.193.534 3.835 1.38 4.926 2.54 1.102 1.159 1.653 2.613 1.653 4.363 0 1.477-.409 2.79-1.227 3.938-.818 1.147-1.96 2.05-3.426 2.71-1.455.648-3.142.971-5.063.971-2.556 0-4.664-.573-6.323-1.721-1.66-1.16-2.722-2.83-3.188-5.011l2.915-.716c.375 1.556 1.108 2.733 2.199 3.528 1.102.795 2.551 1.193 4.346 1.193 2.012 0 3.62-.449 4.824-1.346 1.205-.91 1.807-2.046 1.807-3.41 0-1.056-.352-1.943-1.057-2.659-.704-.727-1.773-1.261-3.204-1.602l-4.279-1.023c-2.273-.545-3.954-1.409-5.045-2.59-1.091-1.182-1.637-2.648-1.637-4.398 0-1.443.392-2.71 1.177-3.801.784-1.103 1.863-1.966 3.238-2.591 1.375-.625 2.943-.938 4.705-.938 2.397 0 4.312.546 5.744 1.637 1.443 1.08 2.483 2.568 3.119 4.465Zm9.132 30.256a7.932 7.932 0 0 1-1.687-.17c-.523-.114-.938-.239-1.244-.375l.818-2.676c1.034.318 1.954.431 2.761.34.807-.079 1.523-.443 2.148-1.09.625-.637 1.182-1.614 1.67-2.932l.955-2.66-9.631-26.437h3.29l7.773 22.176h.238l7.773-22.176h3.29l-11.08 30.324c-.466 1.261-1.039 2.313-1.721 3.153-.682.853-1.472 1.483-2.37 1.892-.886.421-1.88.631-2.983.631Zm27.124-26.182V47h-3.034V20.818h2.949v4.108h.273c.613-1.34 1.568-2.415 2.863-3.221 1.307-.819 2.921-1.228 4.841-1.228 1.761 0 3.307.37 4.636 1.108 1.341.727 2.381 1.801 3.12 3.222.75 1.42 1.125 3.165 1.125 5.233V47h-3.034V30.227c0-2.148-.603-3.846-1.807-5.096-1.193-1.25-2.796-1.875-4.807-1.875-1.375 0-2.597.295-3.665.886s-1.915 1.443-2.54 2.557c-.613 1.102-.92 2.415-.92 3.937Z"/><g clip-path="url(#a)"><path fill="#0F4583" d="M48.233 25.454H34.582V11.819h-9.1v13.636H11.83v9.091h13.651v13.637h9.1V34.545h13.652v-9.09Z"/><path fill="#ECA80A" d="M9.1 20.91H0V0h20.931v9.09H9.101v11.82ZM39.134 0v9.09h11.83v11.82h9.101V0H39.133Zm11.83 39.09v11.82h-11.83V60h20.931V39.09h-9.1ZM9.102 50.91V39.09H0V60h20.931v-9.09H9.101Z"/></g><defs><clipPath id="a"><path fill="#fff" d="M0 0h60.064v60H0z"/></clipPath></defs></svg>
